<svg xmlns="http://www.w3.org/2000/svg" width="22.129" height="22.124" viewBox="0 0 22.129 22.124"><path id="Icon_awesome-instagram" data-name="Icon awesome-instagram" d="M11.062 7.627a5.672 5.672 0 105.672 5.673 5.663 5.663 0 00-5.672-5.673zm0 9.36a3.688 3.688 0 113.687-3.687 3.694 3.694 0 01-3.688 3.688zM18.289 7.4a1.323 1.323 0 11-1.323-1.323A1.32 1.32 0 0118.289 7.4zm3.757 1.343A6.547 6.547 0 0020.259 4.1a6.59 6.59 0 00-4.636-1.787c-1.827-.1-7.3-.1-9.128 0A6.581 6.581 0 001.86 4.1 6.569 6.569 0 00.072 8.733c-.1 1.827-.1 7.3 0 9.128A6.547 6.547 0 001.86 22.5a6.6 6.6 0 004.64 1.784c1.827.1 7.3.1 9.128 0a6.547 6.547 0 004.631-1.784 6.591 6.591 0 001.787-4.636c.1-1.827.1-7.3 0-9.123zm-2.36 11.083a3.734 3.734 0 01-2.1 2.1c-1.456.578-4.912.444-6.521.444s-5.07.128-6.521-.444a3.734 3.734 0 01-2.1-2.1C1.866 18.37 2 14.914 2 13.305s-.128-5.07.444-6.521a3.734 3.734 0 012.1-2.1C6 4.1 9.452 4.231 11.062 4.231s5.07-.128 6.521.444a3.734 3.734 0 012.1 2.1c.578 1.456.444 4.912.444 6.521s.137 5.074-.441 6.525z" transform="translate(.005 -2.238)" fill="#fff"/></svg>