<svg xmlns="http://www.w3.org/2000/svg" width="24.338" height="24.338" viewBox="0 0 24.338 24.338"><path id="Icon_awesome-whatsapp" data-name="Icon awesome-whatsapp" d="M20.693 5.787A12.064 12.064 0 001.711 20.341L0 26.588l6.394-1.678a12.024 12.024 0 005.764 1.467h.005a12.177 12.177 0 0012.175-12.06 12.108 12.108 0 00-3.645-8.529zm-8.529 18.558a10.006 10.006 0 01-5.107-1.4l-.364-.217-3.793.997 1.01-3.7-.239-.38A10.044 10.044 0 1122.3 14.316a10.136 10.136 0 01-10.136 10.029zm5.5-7.508c-.3-.152-1.782-.88-2.059-.978s-.478-.152-.679.152-.777.978-.956 1.184-.353.228-.652.076a8.2 8.2 0 01-4.1-3.586c-.31-.532.31-.494.886-1.646a.558.558 0 00-.027-.527c-.076-.152-.679-1.635-.929-2.238-.244-.587-.494-.505-.679-.516s-.375-.011-.576-.011a1.116 1.116 0 00-.8.375 3.386 3.386 0 00-1.063 2.516 5.9 5.9 0 001.228 3.118 13.466 13.466 0 005.15 4.553c1.912.826 2.662.9 3.618.755a3.087 3.087 0 002.032-1.434 2.52 2.52 0 00.174-1.434c-.071-.137-.272-.213-.57-.359z" transform="translate(0 -2.25)" fill="#3a2c48"/></svg>