<svg xmlns="http://www.w3.org/2000/svg" width="21.659" height="21.659" viewBox="0 0 21.659 21.659"><path id="Icon_metro-youtube" data-name="Icon metro-youtube" d="M8.772 1.928l-1.463 2.9-1.463-2.9H3.979l2.638 4.6.015-.009v3.531h1.354V6.515l.014.01 2.638-4.6zm3.951 2.707a.686.686 0 01.677.677V8.02a.677.677 0 11-1.354 0V5.312a.686.686 0 01.677-.677zm0-1.354a2.037 2.037 0 00-2.031 2.031V8.02a2.031 2.031 0 104.061 0V5.312a2.037 2.037 0 00-2.031-2.031zm6.092 0v5.33c-.591.493-1.354.79-1.354-.965V3.282h-1.353v4.639c.021 1.119.257 3.134 2.705 1.5v.634h1.354V3.282h-1.352zm2.031 13.537a.678.678 0 00-.677.677v.677h1.354V17.5a.678.678 0 00-.677-.677zm-6.092.677v3.553c.458.458 1.354.508 1.354-.169v-3.172c0-.677-.677-.888-1.354-.207zm9.365-3.267a2.815 2.815 0 00-2.768-2.714c-1.476-.074-4.853-.11-7.82-.11s-6.584.037-8.06.11A2.815 2.815 0 002.7 14.229c-.089 1.589-.133 2.165-.133 2.959s.044 1.986.133 3.575a2.815 2.815 0 002.768 2.714c1.476.074 5.094.11 8.06.11s6.344-.037 7.82-.11a2.815 2.815 0 002.768-2.714q.111-1.986.111-3.575c0-1.059-.037-1.635-.111-2.959zM6.632 22.234H5.278v-6.769H3.924v-1.354h4.062v1.354H6.632zm5.415 0h-1.354V21.6c-2.573 1.445-2.685.046-2.705-1.073v-3.708h1.351v3.73c0 .818.763.739 1.354.246v-3.976h1.354zm5.415-1.373c0 1.415-1.449 1.828-2.707.727v.646H13.4v-8.123h1.354v2.2c1.354-1.354 2.707-.846 2.707.508zm5.415-2.688v.677h-2.708v1.35a.677.677 0 101.354 0v-.677h1.354v.677a2.031 2.031 0 11-4.061 0v-2.7a2.031 2.031 0 114.061 0v.677z" transform="translate(-2.571 -1.928)" fill="#fff"/></svg>