<?xml version="1.0" standalone="no"?>
<!DOCTYPE svg PUBLIC "-//W3C//DTD SVG 20010904//EN"
 "http://www.w3.org/TR/2001/REC-SVG-20010904/DTD/svg10.dtd">
<svg version="1.0" xmlns="http://www.w3.org/2000/svg"
 width="73.000000pt" height="73.000000pt" viewBox="0 0 73.000000 73.000000"
 preserveAspectRatio="xMidYMid meet">
<metadata>
Created by potrace 1.14, written by Peter Selinger 2001-2017
</metadata>
<g transform="translate(0.000000,73.000000) scale(0.100000,-0.100000)"
fill="#000000" stroke="none">
<path d="M319 689 c-72 -11 -133 -44 -186 -103 -142 -155 -98 -402 89 -500 70
-37 179 -44 253 -15 174 66 259 273 179 436 -29 59 -88 124 -138 150 -45 24
-144 40 -197 32z m11 -27 c0 -23 -38 -42 -71 -35 l-34 7 40 18 c44 19 65 23
65 10z m123 -3 c40 -11 47 -23 21 -33 -23 -9 -47 0 -62 24 -14 23 -11 24 41 9z
m-57 -26 l27 -27 -23 -18 c-28 -23 -32 -22 -61 1 l-24 19 24 26 c14 14 26 26
27 26 2 0 15 -12 30 -27z m-134 -32 c4 -4 -35 -49 -87 -101 -52 -52 -97 -92
-100 -89 -14 15 29 111 71 158 41 45 48 50 77 44 18 -3 35 -9 39 -12z m314
-16 c33 -35 70 -103 83 -149 l10 -38 -21 18 c-12 11 -59 56 -105 101 l-83 81
28 10 c37 13 60 7 88 -23z m-256 -11 c0 -2 -9 -4 -21 -4 -11 0 -18 4 -14 10 5
8 35 3 35 -6z m127 0 c-3 -3 -12 -4 -19 -1 -8 3 -5 6 6 6 11 1 17 -2 13 -5z
m-107 -41 c0 -2 -8 -18 -17 -36 -9 -18 -19 -45 -23 -62 -10 -50 -25 -29 -28
39 -2 55 0 65 15 68 19 4 53 -1 53 -9z m124 -60 c-1 -32 -2 -62 -3 -66 -2 -15
-21 4 -21 22 0 10 -11 39 -24 64 l-25 46 22 3 c43 8 53 -6 51 -69z m-218 -2
c0 -39 -3 -47 -13 -39 -14 11 -17 46 -7 72 12 30 20 16 20 -33z m155 2 c35
-80 22 -203 -24 -242 -24 -19 -60 65 -60 142 0 63 31 147 54 147 5 0 19 -21
30 -47z m112 -3 c0 -17 -5 -36 -11 -42 -9 -9 -12 1 -12 42 0 41 3 51 12 42 6
-6 11 -25 11 -42z m137 -99 c0 -4 -22 -31 -50 -60 l-50 -53 0 30 c0 16 -12 46
-26 67 -14 21 -21 41 -16 44 15 10 32 48 32 71 0 17 10 10 55 -35 30 -31 55
-60 55 -64z m-428 33 c15 -15 15 -18 -8 -41 -21 -21 -28 -41 -27 -80 1 -21 -9
-15 -62 37 l-50 49 55 56 55 55 10 -29 c5 -17 17 -38 27 -47z m73 -66 c9 -47
26 -90 43 -110 13 -16 13 -18 -1 -24 -9 -3 -26 -4 -39 -2 -22 3 -23 8 -26 86
-3 83 10 112 23 50z m170 -45 c-1 -79 -8 -95 -41 -90 -28 4 -29 9 -3 59 10 21
19 46 19 57 0 11 3 26 6 35 12 31 20 6 19 -61z m-221 -5 c-3 -74 -2 -74 -19
-52 -17 22 -19 67 -4 95 16 31 26 14 23 -43z m276 -3 c0 -26 -6 -48 -15 -55
-13 -11 -15 -4 -15 55 0 59 2 66 15 55 9 -7 15 -29 15 -55z m-264 -144 c-4 -6
-22 -11 -41 -11 -25 0 -40 8 -64 35 -37 43 -66 98 -76 145 -7 34 -3 31 90 -61
57 -56 95 -101 91 -108z m390 132 c-22 -66 -89 -143 -124 -143 -61 1 -56 14
40 113 51 53 94 92 96 86 2 -5 -4 -30 -12 -56z m-336 -103 c0 -5 -7 -10 -16
-10 -8 0 -12 5 -9 10 3 6 10 10 16 10 5 0 9 -4 9 -10z m110 -33 c0 -6 -12 -20
-27 -33 l-27 -23 -28 26 -28 27 27 22 c27 21 29 21 56 6 15 -9 27 -20 27 -25z
m36 30 c4 -4 0 -7 -9 -7 -9 0 -18 4 -21 9 -7 10 20 9 30 -2z m34 -59 c8 -3 -6
-12 -32 -20 -25 -9 -49 -14 -52 -11 -10 10 47 53 59 44 5 -5 17 -10 25 -13z
m-175 -8 c18 -20 17 -20 -9 -20 -15 0 -37 5 -48 11 -17 9 -18 13 -7 20 23 14
45 10 64 -11z"/>
<path d="M365 380 c-8 -13 -1 -24 14 -19 6 3 7 10 2 18 -6 10 -10 10 -16 1z"/>
</g>
</svg>
