<svg xmlns="http://www.w3.org/2000/svg" width="38.999" height="162.49" viewBox="0 0 38.999 162.49"><g id="Group_88" data-name="Group 88" transform="rotate(90 5504.184 5158.315)" opacity=".996" fill="none" stroke="#fff" stroke-width="1"><path id="Path_8" data-name="Path 8" d="M449.268 10640.164a91.358 91.358 0 0026.276 9q.5.089 1.007.176-.5-.086-1.007-.176a91.358 91.358 0 01-26.276-9l-22.154 21.291-22.154-21.291a91.391 91.391 0 01-27.39 9.2 91.391 91.391 0 0027.39-9.2L388.139 10624h-41.23a103.644 103.644 0 00160.409 0h-41.23z"/><path id="Path_10" data-name="Path 10" d="M3084.893 10663.091h-2.059a89.7 89.7 0 01-21.125 15.353l22.154 21.277 22.154-21.277a89.71 89.71 0 01-21.124-15.353z" transform="translate(-2656.75 -38.274)"/></g></svg>